<?xml version="1.0" encoding="iso-8859-1"?>
<!-- Generator: Adobe Illustrator 16.0.0, SVG Export Plug-In . SVG Version: 6.00 Build 0)  -->
<!DOCTYPE svg PUBLIC "-//W3C//DTD SVG 1.1//EN" "http://www.w3.org/Graphics/SVG/1.1/DTD/svg11.dtd">
<svg version="1.1" id="Capa_1" xmlns="http://www.w3.org/2000/svg" xmlns:xlink="http://www.w3.org/1999/xlink" x="0px" y="0px"
	 width="560.8px" height="560.8px" viewBox="0 0 560.8 560.8" style="enable-background:new 0 0 560.8 560.8;" xml:space="preserve"
	>
<g>
	<g>
		<path d="M412.154,222.968c-82.087,0-148.646,66.594-148.646,148.645c0,82.055,66.555,148.646,148.646,148.646
			c82.128,0,148.646-66.592,148.646-148.646C560.8,289.56,494.282,222.968,412.154,222.968z M512.144,398.31h-74.652v74.651h-50.674
			V398.31h-74.651v-50.677h74.651V272.98h50.674v74.652h74.652V398.31z"/>
		<path d="M543.909,108.105H314.183c-9.33,0-22.24-1.971-28.834-8.565l-50.436-47.057c-6.597-6.598-19.507-11.943-28.834-11.943
			H16.891C7.562,40.54,0,48.102,0,57.431v371.616c0,9.33,7.562,16.892,16.891,16.892h225.207
			c-10.016-22.791-15.75-47.868-15.75-74.325c0-102.448,83.361-185.806,185.806-185.806c61.005,0,114.75,29.939,148.646,75.484
			V124.996C560.8,115.666,553.239,108.105,543.909,108.105z"/>
	</g>
</g>
<g>
</g>
<g>
</g>
<g>
</g>
<g>
</g>
<g>
</g>
<g>
</g>
<g>
</g>
<g>
</g>
<g>
</g>
<g>
</g>
<g>
</g>
<g>
</g>
<g>
</g>
<g>
</g>
<g>
</g>
</svg>
