<?xml version="1.0" encoding="UTF-8" standalone="no"?>
<!-- Generator: Adobe Illustrator 19.0.0, SVG Export Plug-In . SVG Version: 6.00 Build 0)  -->

<svg
   xmlns:dc="http://purl.org/dc/elements/1.1/"
   xmlns:cc="http://creativecommons.org/ns#"
   xmlns:rdf="http://www.w3.org/1999/02/22-rdf-syntax-ns#"
   xmlns:svg="http://www.w3.org/2000/svg"
   xmlns="http://www.w3.org/2000/svg"
   xmlns:sodipodi="http://sodipodi.sourceforge.net/DTD/sodipodi-0.dtd"
   xmlns:inkscape="http://www.inkscape.org/namespaces/inkscape"
   version="1.1"
   id="Capa_1"
   x="0px"
   y="0px"
   viewBox="0 0 480.007 480.007"
   style="enable-background:new 0 0 480.007 480.007;"
   xml:space="preserve"
   sodipodi:docname="Supfile.svg"
   inkscape:version="0.92.3 (2405546, 2018-03-11)"><metadata
   id="metadata3855"><rdf:RDF><cc:Work
       rdf:about=""><dc:format>image/svg+xml</dc:format><dc:type
         rdf:resource="http://purl.org/dc/dcmitype/StillImage" /><dc:title></dc:title></cc:Work></rdf:RDF></metadata><defs
   id="defs3853" /><sodipodi:namedview
   pagecolor="#ffffff"
   bordercolor="#666666"
   borderopacity="1"
   objecttolerance="10"
   gridtolerance="10"
   guidetolerance="10"
   inkscape:pageopacity="0"
   inkscape:pageshadow="2"
   inkscape:window-width="1920"
   inkscape:window-height="1001"
   id="namedview3851"
   showgrid="false"
   inkscape:snap-text-baseline="true"
   inkscape:zoom="0.98331902"
   inkscape:cx="290.60405"
   inkscape:cy="121.26547"
   inkscape:window-x="-9"
   inkscape:window-y="-9"
   inkscape:window-maximized="1"
   inkscape:current-layer="Capa_1" />
<g
   id="g3807"
   transform="translate(-1.016964,-47.797306)"
   style="fill:#000000">
	
		<linearGradient
   id="SVGID_1_"
   gradientUnits="userSpaceOnUse"
   x1="-59.521099"
   y1="572.16589"
   x2="28.4279"
   y2="572.16589"
   gradientTransform="matrix(8,0,0,-8,455.1195,4941.3691)">
		<stop
   offset="0"
   style="stop-color:#E93E3A"
   id="stop3785" />
		<stop
   offset="0.355"
   style="stop-color:#ED683C"
   id="stop3787" />
		<stop
   offset="0.688"
   style="stop-color:#F3903F"
   id="stop3789" />
		<stop
   offset="1"
   style="stop-color:#FDC70C"
   id="stop3791" />
	</linearGradient>
	<path
   style="fill:#000000"
   d="m 197.639,298.385 c -3.124,-3.123 -8.188,-3.123 -11.312,0 l -40,40 c -3.124,3.125 -3.123,8.19 0.002,11.314 1.5,1.499 3.534,2.342 5.654,2.342 h 16 v 80 h 16 v -88 c 0,-4.418 -3.582,-8 -8,-8 h -4.688 l 20.688,-20.688 20.688,20.688 h -4.688 c -4.418,0 -8,3.582 -8,8 v 88 h 16 v -80 h 16 c 4.418,-10e-4 7.999,-3.583 7.998,-8.002 0,-2.121 -0.843,-4.154 -2.342,-5.654 z"
   id="path3794"
   inkscape:connector-curvature="0" />
	
		<linearGradient
   id="SVGID_2_"
   gradientUnits="userSpaceOnUse"
   x1="-59.521099"
   y1="572.16608"
   x2="28.4279"
   y2="572.16608"
   gradientTransform="matrix(8,0,0,-8,455.1195,4941.3691)">
		<stop
   offset="0"
   style="stop-color:#E93E3A"
   id="stop3796" />
		<stop
   offset="0.355"
   style="stop-color:#ED683C"
   id="stop3798" />
		<stop
   offset="0.688"
   style="stop-color:#F3903F"
   id="stop3800" />
		<stop
   offset="1"
   style="stop-color:#FDC70C"
   id="stop3802" />
	</linearGradient>
	<path
   style="fill:#000000"
   d="m 327.983,376.041 h -16 v -80 h -16 v 88 c 0,4.418 3.582,8 8,8 h 4.688 l -20.688,20.688 -20.688,-20.688 h 4.688 c 4.418,0 8,-3.582 8,-8 v -88 h -16 v 80 h -16 c -4.418,10e-4 -7.999,3.583 -7.998,8.002 0,2.121 0.843,4.154 2.342,5.654 l 40,40 c 3.124,3.123 8.188,3.123 11.312,0 l 40,-40 c 3.124,-3.125 3.123,-8.19 -0.002,-11.314 -1.5,-1.499 -3.533,-2.342 -5.654,-2.342 z"
   id="path3805"
   inkscape:connector-curvature="0" />
</g>
<linearGradient
   id="SVGID_3_"
   gradientUnits="userSpaceOnUse"
   x1="-59.5211"
   y1="591.6705"
   x2="28.4279"
   y2="591.6705"
   gradientTransform="matrix(8,0,0,-8,454.10254,4893.5718)">
	<stop
   offset="0"
   style="stop-color:#E93E3A"
   id="stop3809" />
	<stop
   offset="0.355"
   style="stop-color:#ED683C"
   id="stop3811" />
	<stop
   offset="0.688"
   style="stop-color:#F3903F"
   id="stop3813" />
	<stop
   offset="1"
   style="stop-color:#FDC70C"
   id="stop3815" />
</linearGradient>
<path
   style="fill:#000000"
   d="m 395.76604,100.02769 c -15.504,-68.916996 -83.941,-112.215996 -152.858,-96.7119961 -34.888,7.8490001 -64.896,29.9440001 -82.75,60.9280001 h -1.192 c -50.188,0.122 -93.157004,36.005996 -102.224004,85.367996 -37.491,13.877 -61.016,51.172 -57.39199996,90.984 5.25599996,45.661 44.09499996,80.011 90.05599996,79.648 h 37.560004 v -16 H 89.406036 c -37.717,0.421 -69.682,-27.663 -74.12,-65.12 -3.133,-34.128 18.108,-65.773 50.88,-75.8 3.006,-0.917 5.196,-3.508 5.6,-6.624 5.844,-43.713 43.098004,-76.376996 87.200004,-76.455996 1.216,0 2.4,0.088 3.6,0.168 l 1.712,0.104 c 3.119,0.139 6.044,-1.517 7.528,-4.264 28.672,-54.759 96.307,-75.90700009 151.066,-47.235 30.526,15.984 51.988,45.138 58.182,79.034996 0.575,3.189 3.017,5.716 6.184,6.4 47.596,10.354 79.934,54.657 75.288,103.144 -5.915,49.764 -48.336,87.1 -98.448,86.648 h -13.112 v 16 h 13.112 c 58.355,0.392 107.652,-43.203 114.4,-101.168 5.208,-54.559 -29.764,-104.895 -82.712,-119.048 z"
   id="path3818"
   inkscape:connector-curvature="0" />
<g
   id="g3820"
   transform="translate(-1.016964,-47.797306)">
</g>
<g
   id="g3822"
   transform="translate(-1.016964,-47.797306)">
</g>
<g
   id="g3824"
   transform="translate(-1.016964,-47.797306)">
</g>
<g
   id="g3826"
   transform="translate(-1.016964,-47.797306)">
</g>
<g
   id="g3828"
   transform="translate(-1.016964,-47.797306)">
</g>
<g
   id="g3830"
   transform="translate(-1.016964,-47.797306)">
</g>
<g
   id="g3832"
   transform="translate(-1.016964,-47.797306)">
</g>
<g
   id="g3834"
   transform="translate(-1.016964,-47.797306)">
</g>
<g
   id="g3836"
   transform="translate(-1.016964,-47.797306)">
</g>
<g
   id="g3838"
   transform="translate(-1.016964,-47.797306)">
</g>
<g
   id="g3840"
   transform="translate(-1.016964,-47.797306)">
</g>
<g
   id="g3842"
   transform="translate(-1.016964,-47.797306)">
</g>
<g
   id="g3844"
   transform="translate(-1.016964,-47.797306)">
</g>
<g
   id="g3846"
   transform="translate(-1.016964,-47.797306)">
</g>
<g
   id="g3848"
   transform="translate(-1.016964,-47.797306)">
</g>
<flowRoot
   xml:space="preserve"
   id="flowRoot3857"
   style="font-style:normal;font-variant:normal;font-weight:normal;font-stretch:normal;font-size:85.33333588px;line-height:1.25;font-family:'Elite Danger';-inkscape-font-specification:'Elite Danger';letter-spacing:0px;word-spacing:0px;fill:#000000;fill-opacity:1;stroke:none"
   transform="matrix(2.116181,0,0,1.8226664,-306.96108,-326.21379)"><flowRegion
     id="flowRegion3859"
     style="font-style:normal;font-variant:normal;font-weight:normal;font-stretch:normal;font-size:85.33333588px;font-family:'Elite Danger';-inkscape-font-specification:'Elite Danger'"><rect
       id="rect3861"
       width="238.98656"
       height="100.67947"
       x="140.34102"
       y="362.03915"
       ry="0"
       style="font-style:normal;font-variant:normal;font-weight:normal;font-stretch:normal;font-size:85.33333588px;font-family:'Elite Danger';-inkscape-font-specification:'Elite Danger'" /></flowRegion><flowPara
     id="flowPara3863">SupFile</flowPara></flowRoot></svg>